<svg width="347" height="99" viewBox="0 0 347 99" fill="none" xmlns="http://www.w3.org/2000/svg">
<g clip-path="url(#clip0_180_768)">
<rect width="347" height="99" fill="white"/>
<path d="M56.064 25.352H23.712V39.08H55.296V51.56H23.712V63.848C23.712 65.832 24.032 67.272 24.672 68.168C25.312 69 26.432 69.416 28.032 69.416C29.568 69.416 31.488 69.192 33.792 68.744C36.096 68.296 38.496 67.656 40.992 66.824C43.552 65.928 46.112 64.808 48.672 63.464C51.232 62.12 53.568 60.552 55.68 58.76L59.328 75.176C57.216 76.136 54.688 77.032 51.744 77.864C48.864 78.696 45.824 79.4 42.624 79.976C39.488 80.552 36.352 81 33.216 81.32C30.144 81.64 27.36 81.8 24.864 81.8C21.984 81.8 19.328 81.448 16.896 80.744C14.464 80.04 12.384 78.92 10.656 77.384C8.928 75.848 7.552 73.864 6.528 71.432C5.568 68.936 5.088 65.928 5.088 62.408V12.872H56.064V25.352Z" fill="black"/>
<path d="M56.064 25.352H23.712V39.08H55.296V51.56H23.712V63.848C23.712 65.832 24.032 67.272 24.672 68.168C25.312 69 26.432 69.416 28.032 69.416C29.568 69.416 31.488 69.192 33.792 68.744C36.096 68.296 38.496 67.656 40.992 66.824C43.552 65.928 46.112 64.808 48.672 63.464C51.232 62.12 53.568 60.552 55.68 58.76L59.328 75.176C57.216 76.136 54.688 77.032 51.744 77.864C48.864 78.696 45.824 79.4 42.624 79.976C39.488 80.552 36.352 81 33.216 81.32C30.144 81.64 27.36 81.8 24.864 81.8C21.984 81.8 19.328 81.448 16.896 80.744C14.464 80.04 12.384 78.92 10.656 77.384C8.928 75.848 7.552 73.864 6.528 71.432C5.568 68.936 5.088 65.928 5.088 62.408V12.872H56.064V25.352Z" fill="#6A5AFF"/>
<path d="M93.912 25.352V69.32H102.84V81.8H66.36V69.32H75.288V25.352H66.36V12.872H102.84V25.352H93.912Z" fill="black"/>
<path d="M93.912 25.352V69.32H102.84V81.8H66.36V69.32H75.288V25.352H66.36V12.872H102.84V25.352H93.912Z" fill="#6A5AFF"/>
<path d="M187.49 39.1004C187.49 35.6156 187.49 33.8733 188.173 32.5423C188.774 31.3715 189.733 30.4196 190.912 29.823C192.253 29.1449 194.009 29.1449 197.52 29.1449H198.773C205.795 29.1449 209.306 29.1449 211.988 30.5012C214.347 31.6943 216.265 33.5981 217.467 35.9396C218.833 38.6017 218.833 42.0864 218.833 49.056V85.1449L218.519 84.6779C216.342 81.4363 215.254 79.8154 213.815 78.6421C212.542 77.6033 211.075 76.8239 209.498 76.3485C207.716 75.8115 205.754 75.8115 201.829 75.8115H197.52C194.009 75.8115 192.253 75.8115 190.912 75.1333C189.733 74.5368 188.774 73.5849 188.173 72.4141C187.49 71.0831 187.49 69.3407 187.49 65.856V39.1004Z" fill="white"/>
<path d="M250.176 39.1004C250.176 35.6156 250.176 33.8733 249.493 32.5423C248.892 31.3715 247.933 30.4196 246.754 29.823C245.413 29.1449 243.657 29.1449 240.146 29.1449H238.893C231.871 29.1449 228.36 29.1449 225.679 30.5012C223.319 31.6943 221.402 33.5981 220.2 35.9396C218.833 38.6017 218.833 42.0864 218.833 49.056V85.1449L219.147 84.6779C221.324 81.4363 222.412 79.8154 223.851 78.6421C225.124 77.6033 226.591 76.8239 228.168 76.3485C229.95 75.8115 231.912 75.8115 235.837 75.8115H240.146C243.657 75.8115 245.413 75.8115 246.754 75.1333C247.933 74.5368 248.892 73.5849 249.493 72.4141C250.176 71.0831 250.176 69.3407 250.176 65.856V39.1004Z" fill="white"/>
<path d="M218.833 85.1449L218.519 84.6779C216.342 81.4363 215.254 79.8154 213.815 78.6421C212.542 77.6033 211.075 76.8239 209.498 76.3485C207.716 75.8115 205.754 75.8115 201.829 75.8115H197.52C194.009 75.8115 192.253 75.8115 190.912 75.1333C189.733 74.5368 188.774 73.5849 188.173 72.4141C187.49 71.0831 187.49 69.3407 187.49 65.856V39.1004C187.49 35.6156 187.49 33.8733 188.173 32.5423C188.774 31.3715 189.733 30.4196 190.912 29.823C192.253 29.1449 194.009 29.1449 197.52 29.1449H198.773C205.795 29.1449 209.306 29.1449 211.988 30.5012C214.347 31.6943 216.265 33.5981 217.467 35.9396C218.833 38.6017 218.833 42.0864 218.833 49.056M218.833 85.1449V49.056M218.833 85.1449L219.147 84.6779C221.324 81.4363 222.412 79.8154 223.851 78.6421C225.124 77.6033 226.591 76.8239 228.168 76.3485C229.95 75.8115 231.912 75.8115 235.837 75.8115H240.146C243.657 75.8115 245.413 75.8115 246.754 75.1333C247.933 74.5368 248.892 73.5849 249.493 72.4141C250.176 71.0831 250.176 69.3407 250.176 65.856V39.1004C250.176 35.6156 250.176 33.8733 249.493 32.5423C248.892 31.3715 247.933 30.4196 246.754 29.823C245.413 29.1449 243.657 29.1449 240.146 29.1449H238.893C231.871 29.1449 228.36 29.1449 225.679 30.5012C223.319 31.6943 221.402 33.5981 220.2 35.9396C218.833 38.6017 218.833 42.0864 218.833 49.056" stroke="#352D7F" stroke-width="10" stroke-linecap="round" stroke-linejoin="round"/>
<path d="M238.569 15.5687H244.569V35.5687H238.569V15.5687Z" fill="#6A5AFF"/>
<rect x="238.569" y="21.5687" width="6" height="14" fill="#DFDCFF" fill-opacity="0.5"/>
<path d="M157.345 20.22C164.485 20.22 169.698 21.6367 172.985 24.47C176.272 27.3033 177.915 31.3833 177.915 36.71C177.915 38.9767 177.32 41.2433 176.13 43.51C174.997 45.7767 173.325 47.4767 171.115 48.61C172.475 48.95 173.722 49.6017 174.855 50.565C175.988 51.4717 176.952 52.5483 177.745 53.795C178.538 55.0417 179.133 56.3733 179.53 57.79C179.983 59.2067 180.21 60.595 180.21 61.955C180.21 67.905 178.567 72.6083 175.28 76.065C171.993 79.5217 166.752 81.25 159.555 81.25H131.505V20.22H157.345ZM164.57 62.89C164.57 60.34 163.975 58.4133 162.785 57.11C161.595 55.75 159.64 55.07 156.92 55.07H146.72V70.2H156.92C159.64 70.2 161.595 69.6333 162.785 68.5C163.975 67.31 164.57 65.44 164.57 62.89ZM162.275 37.305C162.275 35.095 161.737 33.5367 160.66 32.63C159.64 31.7233 157.855 31.27 155.305 31.27H146.72V44.02H154.71C159.753 44.02 162.275 41.7817 162.275 37.305ZM258.839 81.25V20.22H274.224V50.48L293.519 37.73L299.214 45.72L279.579 59.065L301.254 81.25H283.234L274.224 71.815V77.85C274.224 80.1167 273.091 81.25 270.824 81.25H258.839ZM321.957 71.815C324.111 71.815 325.584 71.5883 326.377 71.135C327.227 70.625 327.652 69.945 327.652 69.095C327.652 67.7917 326.717 66.8 324.847 66.12L313.627 62.21C312.097 61.7 310.624 61.105 309.207 60.425C307.791 59.745 306.516 58.9517 305.382 58.045C304.306 57.0817 303.427 55.9483 302.747 54.645C302.124 53.285 301.812 51.67 301.812 49.8C301.812 48.1 302.209 46.485 303.002 44.955C303.796 43.425 305.014 42.0933 306.657 40.96C308.357 39.8267 310.511 38.92 313.117 38.24C315.724 37.56 318.869 37.22 322.552 37.22C327.482 37.22 331.562 38.07 334.792 39.77C338.079 41.4133 340.714 43.765 342.697 46.825L329.777 54.305C329.324 52.435 328.559 50.8483 327.482 49.545C326.462 48.185 324.819 47.505 322.552 47.505C320.626 47.505 319.124 47.7883 318.047 48.355C316.971 48.9217 316.432 49.6867 316.432 50.65C316.432 51.6133 317.027 52.3783 318.217 52.945C319.464 53.5117 321.277 54.1917 323.657 54.985L333.857 58.47C337.314 59.66 339.666 61.2467 340.912 63.23C342.216 65.1567 342.867 67.14 342.867 69.18C342.867 71.7867 342.216 73.94 340.912 75.64C339.609 77.2833 337.937 78.5583 335.897 79.465C333.914 80.4283 331.761 81.08 329.437 81.42C327.114 81.76 324.932 81.93 322.892 81.93C320.172 81.93 317.707 81.7033 315.497 81.25C313.287 80.8533 311.276 80.2583 309.462 79.465C307.706 78.7283 306.091 77.7933 304.617 76.66C303.144 75.5267 301.727 74.2517 300.367 72.835L309.547 63.825C311.361 66.715 313.287 68.7833 315.327 70.03C317.424 71.22 319.634 71.815 321.957 71.815Z" fill="black"/>
<path d="M157.345 20.22C164.485 20.22 169.698 21.6367 172.985 24.47C176.272 27.3033 177.915 31.3833 177.915 36.71C177.915 38.9767 177.32 41.2433 176.13 43.51C174.997 45.7767 173.325 47.4767 171.115 48.61C172.475 48.95 173.722 49.6017 174.855 50.565C175.988 51.4717 176.952 52.5483 177.745 53.795C178.538 55.0417 179.133 56.3733 179.53 57.79C179.983 59.2067 180.21 60.595 180.21 61.955C180.21 67.905 178.567 72.6083 175.28 76.065C171.993 79.5217 166.752 81.25 159.555 81.25H131.505V20.22H157.345ZM164.57 62.89C164.57 60.34 163.975 58.4133 162.785 57.11C161.595 55.75 159.64 55.07 156.92 55.07H146.72V70.2H156.92C159.64 70.2 161.595 69.6333 162.785 68.5C163.975 67.31 164.57 65.44 164.57 62.89ZM162.275 37.305C162.275 35.095 161.737 33.5367 160.66 32.63C159.64 31.7233 157.855 31.27 155.305 31.27H146.72V44.02H154.71C159.753 44.02 162.275 41.7817 162.275 37.305ZM258.839 81.25V20.22H274.224V50.48L293.519 37.73L299.214 45.72L279.579 59.065L301.254 81.25H283.234L274.224 71.815V77.85C274.224 80.1167 273.091 81.25 270.824 81.25H258.839ZM321.957 71.815C324.111 71.815 325.584 71.5883 326.377 71.135C327.227 70.625 327.652 69.945 327.652 69.095C327.652 67.7917 326.717 66.8 324.847 66.12L313.627 62.21C312.097 61.7 310.624 61.105 309.207 60.425C307.791 59.745 306.516 58.9517 305.382 58.045C304.306 57.0817 303.427 55.9483 302.747 54.645C302.124 53.285 301.812 51.67 301.812 49.8C301.812 48.1 302.209 46.485 303.002 44.955C303.796 43.425 305.014 42.0933 306.657 40.96C308.357 39.8267 310.511 38.92 313.117 38.24C315.724 37.56 318.869 37.22 322.552 37.22C327.482 37.22 331.562 38.07 334.792 39.77C338.079 41.4133 340.714 43.765 342.697 46.825L329.777 54.305C329.324 52.435 328.559 50.8483 327.482 49.545C326.462 48.185 324.819 47.505 322.552 47.505C320.626 47.505 319.124 47.7883 318.047 48.355C316.971 48.9217 316.432 49.6867 316.432 50.65C316.432 51.6133 317.027 52.3783 318.217 52.945C319.464 53.5117 321.277 54.1917 323.657 54.985L333.857 58.47C337.314 59.66 339.666 61.2467 340.912 63.23C342.216 65.1567 342.867 67.14 342.867 69.18C342.867 71.7867 342.216 73.94 340.912 75.64C339.609 77.2833 337.937 78.5583 335.897 79.465C333.914 80.4283 331.761 81.08 329.437 81.42C327.114 81.76 324.932 81.93 322.892 81.93C320.172 81.93 317.707 81.7033 315.497 81.25C313.287 80.8533 311.276 80.2583 309.462 79.465C307.706 78.7283 306.091 77.7933 304.617 76.66C303.144 75.5267 301.727 74.2517 300.367 72.835L309.547 63.825C311.361 66.715 313.287 68.7833 315.327 70.03C317.424 71.22 319.634 71.815 321.957 71.815Z" fill="#6A5AFF" fill-opacity="0.5"/>
</g>
<defs>
<clipPath id="clip0_180_768">
<rect width="347" height="99" fill="white"/>
</clipPath>
</defs>
</svg>
