<svg width="90" height="90" viewBox="0 0 90 90" fill="none" xmlns="http://www.w3.org/2000/svg">
<g clip-path="url(#clip0_12_183)">
<rect x="15" y="22" width="28" height="48" fill="white"/>
<rect x="49" y="22" width="28" height="48" fill="white"/>
<path d="M45.2643 77.5762L44.9507 77.1093C42.7735 73.8676 41.6848 72.2468 40.2466 71.0734C38.9733 70.0346 37.5061 69.2552 35.929 68.7798C34.1476 68.2428 32.1851 68.2428 28.26 68.2428H23.9509C20.4401 68.2428 18.6847 68.2428 17.3438 67.5647C16.1642 66.9681 15.2053 66.0162 14.6043 64.8454C13.921 63.5144 13.921 61.7721 13.921 58.2873V31.5317C13.921 28.047 13.921 26.3046 14.6043 24.9736C15.2053 23.8028 16.1642 22.8509 17.3438 22.2544C18.6847 21.5762 20.4401 21.5762 23.9509 21.5762H25.2046C32.2262 21.5762 35.7369 21.5762 38.4188 22.9325C40.7779 24.1256 42.6958 26.0294 43.8978 28.371C45.2643 31.033 45.2643 34.5177 45.2643 41.4873M45.2643 77.5762V41.4873M45.2643 77.5762L45.5779 77.1093C47.7551 73.8676 48.8438 72.2468 50.282 71.0734C51.5553 70.0346 53.0225 69.2552 54.5996 68.7798C56.381 68.2428 58.3435 68.2428 62.2686 68.2428H66.5777C70.0885 68.2428 71.8439 68.2428 73.1848 67.5647C74.3644 66.9681 75.3234 66.0162 75.9243 64.8454C76.6076 63.5144 76.6076 61.7721 76.6076 58.2873V31.5317C76.6076 28.047 76.6076 26.3046 75.9243 24.9736C75.3234 23.8028 74.3644 22.8509 73.1848 22.2544C71.8439 21.5762 70.0885 21.5762 66.5777 21.5762H65.324C58.3025 21.5762 54.7917 21.5762 52.1098 22.9325C49.7507 24.1256 47.8328 26.0294 46.6308 28.371C45.2643 31.033 45.2643 34.5177 45.2643 41.4873" stroke="#352D7F" stroke-width="10" stroke-linecap="round" stroke-linejoin="round"/>
<path d="M65 8H71V28H65V8Z" fill="#6A5AFF"/>
<rect x="65" y="14" width="6" height="14" fill="#DFDCFF" fill-opacity="0.5"/>
</g>
<defs>
<clipPath id="clip0_12_183">
<rect width="90" height="90" fill="white"/>
</clipPath>
</defs>
</svg>
